# xmcd
#
# Track frame offsets: 
#        150
#        6581
#        26229
#        28234
#        44013
#        61362
#        77765
#        94868
#        113805
#        128367
#        143591
#        160630
#        182981
#        200617
#        216682
#        234451
#        250238
#        267275
#        269876
#
# Disc length: 3870 seconds
#
# Revision: 3
# Processed by: cddbd v1.5.2PL0 Copyright (c) Steve Scherf et al.
# Submitted via: ExactAudioCopy v0.95b2
#
DISCID=210f1c13
DTITLE=Cavaleiros Do Forró - Nossa História. Nosso Accustico.
DYEAR=2004
DGENRE=Forró
TTITLE0=Abertura
TTITLE1=Minha História
TTITLE2=Boa Noite
TTITLE3=Alô
TTITLE4=Avise à ela
TTITLE5=Você Aai Ver
TTITLE6=Ciúme
TTITLE7=Só Você
TTITLE8=Mar De Douçura
TTITLE9=Os Outros
TTITLE10=Orgulho
TTITLE11=Sonho De Vaquejada
TTITLE12=A Vontade Que Eu Tenho
TTITLE13=Faz Amor Comigo
TTITLE14=Rafa
TTITLE15=Brinquedo De Amor
TTITLE16=Penitência
TTITLE17=Despedida
TTITLE18=Se Réi Pra Lá
EXTD=
EXTT0=
EXTT1=
EXTT2=
EXTT3=
EXTT4=
EXTT5=
EXTT6=
EXTT7=
EXTT8=
EXTT9=
EXTT10=
EXTT11=
EXTT12=
EXTT13=
EXTT14=
EXTT15=
EXTT16=
EXTT17=
EXTT18=
PLAYORDER=
